<svg xmlns="http://www.w3.org/2000/svg" height="512pt" version="1.1" viewBox="-128 0 512 512" width="512pt">
<g id="surface1">
<path d="M 140 216 L 116 216 C 111.582031 216 108 219.582031 108 224 L 108 472 C 108 472.960938 108.171875 473.910156 108.507812 474.808594 L 120.507812 506.808594 C 121.679688 509.933594 124.664062 512 128 512 C 131.335938 512 134.320312 509.933594 135.488281 506.808594 L 147.488281 474.808594 C 147.828125 473.910156 148 472.960938 148 472 L 148 224 C 148 219.582031 144.417969 216 140 216 Z M 140 216 " style=" stroke:none;fill-rule:nonzero;fill:rgb(100%,87.45098%,34.509804%);fill-opacity:1;" />
<path d="M 128 0 C 57.421875 0 0 57.421875 0 128 C 0 198.578125 57.421875 256 128 256 C 198.578125 256 256 198.578125 256 128 C 256 57.421875 198.578125 0 128 0 Z M 128 0 " style=" stroke:none;fill-rule:nonzero;fill:rgb(50.588235%,85.882353%,62.745098%);fill-opacity:1;" />
<path d="M 152 240 C 81.421875 240 24 182.578125 24 112 C 24 72.757812 41.757812 37.589844 69.652344 14.089844 C 28.332031 35.34375 0 78.425781 0 128 C 0 198.578125 57.421875 256 128 256 C 159.335938 256 188.074219 244.675781 210.347656 225.910156 C 192.84375 234.914062 173.003906 240 152 240 Z M 152 240 " style=" stroke:none;fill-rule:nonzero;fill:rgb(38.431373%,82.352941%,53.333333%);fill-opacity:1;" />
<path d="M 40 128 C 40 132.417969 43.582031 136 48 136 L 80 136 C 84.417969 136 88 132.417969 88 128 C 88 111.394531 98.175781 97.121094 112.617188 91.082031 L 94.15625 46.773438 C 62.382812 60.058594 40 91.464844 40 128 Z M 40 128 " style=" stroke:none;fill-rule:nonzero;fill:rgb(98.039216%,54.901961%,53.72549%);fill-opacity:1;" />
<path d="M 128 40 C 116.011719 40 104.578125 42.414062 94.15625 46.773438 L 112.617188 91.078125 C 117.355469 89.097656 122.550781 88 128 88 C 150.054688 88 168 105.945312 168 128 C 168 132.417969 171.582031 136 176 136 L 208 136 C 212.417969 136 216 132.417969 216 128 C 216 79.476562 176.523438 40 128 40 Z M 128 40 " style=" stroke:none;fill-rule:nonzero;fill:rgb(94.509804%,93.72549%,94.117647%);fill-opacity:1;" />
<path d="M 128 136 C 125.953125 136 123.90625 135.21875 122.34375 133.65625 L 82.34375 93.65625 C 79.21875 90.53125 79.21875 85.46875 82.34375 82.34375 C 85.46875 79.21875 90.53125 79.21875 93.65625 82.34375 L 133.65625 122.34375 C 136.78125 125.46875 136.78125 130.53125 133.65625 133.65625 C 132.09375 135.21875 130.046875 136 128 136 Z M 128 136 " style=" stroke:none;fill-rule:nonzero;fill:rgb(100%,87.45098%,34.509804%);fill-opacity:1;" />
<path d="M 88 224 C 83.582031 224 80 220.417969 80 216 L 80 168 C 80 163.582031 83.582031 160 88 160 L 120 160 C 124.417969 160 128 163.582031 128 168 L 128 192 C 128 196.417969 124.417969 200 120 200 L 96 200 L 96 216 C 96 220.417969 92.417969 224 88 224 Z M 96 184 L 112 184 L 112 176 L 96 176 Z M 96 184 " style=" stroke:none;fill-rule:nonzero;fill:rgb(87.45098%,90.980392%,50.980392%);fill-opacity:1;" />
<path d="M 176 160 C 171.582031 160 168 163.582031 168 168 L 168 184 L 152 184 L 152 168 C 152 163.582031 148.417969 160 144 160 C 139.582031 160 136 163.582031 136 168 L 136 216 C 136 220.417969 139.582031 224 144 224 C 148.417969 224 152 220.417969 152 216 L 152 200 L 168 200 L 168 216 C 168 220.417969 171.582031 224 176 224 C 180.417969 224 184 220.417969 184 216 L 184 168 C 184 163.582031 180.417969 160 176 160 Z M 176 160 " style=" stroke:none;fill-rule:nonzero;fill:rgb(87.45098%,90.980392%,50.980392%);fill-opacity:1;" />
</g>
</svg>