<svg id="Capa_1" enable-background="new 0 0 512 512" height="512" viewBox="0 0 512 512" width="512" xmlns="http://www.w3.org/2000/svg"><g fill="#98d72a"><path d="m202.917 216.857c-30.938-11.473-67.07 5.885-78.671 12.251-2.252 1.236-3.236 3.935-2.335 6.34 4.652 12.413 20.712 49.083 51.63 60.548 30.936 11.472 67.063-5.882 78.668-12.249 2.254-1.237 3.239-3.938 2.337-6.345-4.655-12.416-20.715-49.081-51.629-60.545z"/><path d="m387.755 229.107c-11.602-6.366-47.733-23.723-78.671-12.251-30.915 11.464-46.975 48.129-51.629 60.545-.902 2.407.083 5.108 2.337 6.345 11.605 6.367 47.733 23.721 78.668 12.249 30.917-11.465 46.977-48.135 51.63-60.548.901-2.405-.083-5.104-2.335-6.34z"/><path d="m187.918 186.522c24.931 9.245 53.947-4.185 64.23-9.721 2.281-1.228 3.295-3.96 2.367-6.378-4.183-10.901-17.412-39.996-42.342-49.24-24.934-9.246-53.954 4.188-64.234 9.723-2.279 1.227-3.291 3.956-2.364 6.372 4.18 10.898 17.41 39.998 42.343 49.244z"/><path d="m257.485 170.423c-.928 2.419.085 5.15 2.367 6.378 10.283 5.536 39.299 18.966 64.23 9.721 24.933-9.246 38.163-38.346 42.344-49.244.927-2.417-.085-5.145-2.364-6.372-10.28-5.535-39.3-18.97-64.234-9.723-24.931 9.244-38.16 38.338-42.343 49.24z"/><path d="m287.622 52.125c.191-23.434-19.318-43.512-27.365-50.79-1.943-1.757-4.886-1.782-6.857-.057-8.166 7.142-27.998 26.885-28.189 50.318-.191 23.434 19.318 43.512 27.365 50.79 1.943 1.757 4.885 1.782 6.857.057 8.166-7.142 27.998-26.885 28.189-50.318z"/></g><path d="m387.754 229.107c-.699-.384-1.488-.807-2.358-1.262-7.651 16.139-22.744 40.54-46.936 49.512-27.996 10.382-60.233-2.84-74.709-10.166v-88.39c12.519 6.139 38.051 15.984 60.331 7.721 24.933-9.246 38.163-38.346 42.344-49.244.927-2.417-.086-5.145-2.365-6.373-.738-.397-1.573-.835-2.495-1.303-6.65 13.218-18.769 31.341-37.484 38.281-22.279 8.262-47.811-1.582-60.331-7.721v-60.612c0-.353-.028-.698-.07-1.039 9.313-9.084 23.778-26.388 23.941-46.386.027-3.304-.355-6.535-1.024-9.679-4.156 19.392-20.048 35.123-27.152 41.344-1.984 1.737-4.953 1.693-6.907-.078-6.926-6.277-22.238-21.955-26.306-41.076-.624 2.912-.999 5.901-1.024 8.959-.163 19.964 13.969 37.486 23.134 46.739-.057.398-.095.801-.095 1.216v60.614c-12.52 6.139-38.052 15.982-60.331 7.721-18.714-6.94-30.833-25.063-37.483-38.281-.923.467-1.757.905-2.495 1.303-2.28 1.227-3.292 3.955-2.365 6.373 4.181 10.898 17.411 39.998 42.344 49.244 22.281 8.262 47.812-1.582 60.331-7.721v88.39c-14.476 7.326-46.713 20.548-74.709 10.166-24.193-8.971-39.285-33.372-46.936-49.512-.871.455-1.659.878-2.358 1.262-2.251 1.235-3.236 3.936-2.335 6.34 4.652 12.413 20.712 49.083 51.629 60.548 27.99 10.38 60.228-2.838 74.709-10.165v53.61c0 4.507 3.47 8.161 7.751 8.161s7.751-3.654 7.751-8.161v-53.61c14.482 7.327 46.719 20.544 74.709 10.165 30.917-11.465 46.977-48.135 51.629-60.548.901-2.405-.084-5.107-2.335-6.342z" fill="#8bc727"/><path d="m148.283 396.221h215.435l-21.5 111.589c-.469 2.432-2.597 4.189-5.074 4.189h-162.287c-2.477 0-4.605-1.758-5.074-4.189z" fill="#ffa549"/><path d="m360.126 414.859 3.591-18.638h-215.434l3.59 18.638z" fill="#ff9200"/><path d="m374.315 396.221h-236.63c-6.642 0-12.027-5.385-12.027-12.027v-38.602c0-6.642 5.385-12.027 12.027-12.027h236.63c6.642 0 12.027 5.384 12.027 12.027v38.602c0 6.643-5.385 12.027-12.027 12.027z" fill="#ffe2cb"/><path d="m374.315 377.583h-236.63c-6.642 0-12.027-5.385-12.027-12.027v18.638c0 6.642 5.385 12.027 12.027 12.027h236.63c6.642 0 12.027-5.385 12.027-12.027v-18.638c0 6.643-5.385 12.027-12.027 12.027z" fill="#efc89d"/></svg>